<?xml version="1.0" encoding="UTF-8" standalone="no"?>
<svg
   width="32"
   height="64"
   viewBox="0 0 32 64"
   version="1.1"
   id="svg2077"
   sodipodi:docname="missile_tex.svg"
   inkscape:version="1.2.2 (b0a8486541, 2022-12-01)"
   inkscape:export-filename="missile_tex.png"
   inkscape:export-xdpi="94.610001"
   inkscape:export-ydpi="94.610001"
   xmlns:inkscape="http://www.inkscape.org/namespaces/inkscape"
   xmlns:sodipodi="http://sodipodi.sourceforge.net/DTD/sodipodi-0.dtd"
   xmlns:xlink="http://www.w3.org/1999/xlink"
   xmlns="http://www.w3.org/2000/svg"
   xmlns:svg="http://www.w3.org/2000/svg">
  <defs
     id="defs2081">
    <linearGradient
       inkscape:collect="always"
       id="linearGradient26223">
      <stop
         style="stop-color:#ffffff;stop-opacity:1;"
         offset="0"
         id="stop26219" />
      <stop
         style="stop-color:#ffffff;stop-opacity:0;"
         offset="1"
         id="stop26221" />
    </linearGradient>
    <linearGradient
       inkscape:collect="always"
       id="linearGradient25792">
      <stop
         style="stop-color:#000000;stop-opacity:1;"
         offset="0"
         id="stop25788" />
      <stop
         style="stop-color:#000000;stop-opacity:0;"
         offset="1"
         id="stop25790" />
    </linearGradient>
    <linearGradient
       inkscape:collect="always"
       id="linearGradient25782">
      <stop
         style="stop-color:#ffffff;stop-opacity:1;"
         offset="0"
         id="stop25778" />
      <stop
         style="stop-color:#ffffff;stop-opacity:0;"
         offset="1"
         id="stop25780" />
    </linearGradient>
    <linearGradient
       inkscape:collect="always"
       id="linearGradient24916">
      <stop
         style="stop-color:#000000;stop-opacity:1;"
         offset="0"
         id="stop24912" />
      <stop
         style="stop-color:#000000;stop-opacity:0;"
         offset="1"
         id="stop24914" />
    </linearGradient>
    <linearGradient
       inkscape:collect="always"
       id="linearGradient21376">
      <stop
         style="stop-color:#000000;stop-opacity:1;"
         offset="0"
         id="stop21372" />
      <stop
         style="stop-color:#000000;stop-opacity:0;"
         offset="1"
         id="stop21374" />
    </linearGradient>
    <linearGradient
       inkscape:collect="always"
       id="linearGradient13810">
      <stop
         style="stop-color:#000000;stop-opacity:1;"
         offset="0"
         id="stop13806" />
      <stop
         style="stop-color:#000000;stop-opacity:0;"
         offset="1"
         id="stop13808" />
    </linearGradient>
    <linearGradient
       inkscape:collect="always"
       id="linearGradient13111">
      <stop
         style="stop-color:#ffffff;stop-opacity:1;"
         offset="0"
         id="stop13107" />
      <stop
         style="stop-color:#ffffff;stop-opacity:0;"
         offset="1"
         id="stop13109" />
    </linearGradient>
    <linearGradient
       inkscape:collect="always"
       id="linearGradient12779">
      <stop
         style="stop-color:#ffffff;stop-opacity:1;"
         offset="0"
         id="stop12775" />
      <stop
         style="stop-color:#ffffff;stop-opacity:0;"
         offset="1"
         id="stop12777" />
    </linearGradient>
    <linearGradient
       inkscape:collect="always"
       id="linearGradient6062">
      <stop
         style="stop-color:#000000;stop-opacity:1;"
         offset="0"
         id="stop6058" />
      <stop
         style="stop-color:#000000;stop-opacity:0;"
         offset="1"
         id="stop6060" />
    </linearGradient>
    <linearGradient
       inkscape:collect="always"
       id="linearGradient6029">
      <stop
         style="stop-color:#000000;stop-opacity:1;"
         offset="0"
         id="stop6025" />
      <stop
         style="stop-color:#000000;stop-opacity:0;"
         offset="1"
         id="stop6027" />
    </linearGradient>
    <clipPath
       clipPathUnits="userSpaceOnUse"
       id="clipPath5851">
      <rect
         style="fill:#ffcc00;stroke-linecap:round"
         id="rect5853"
         width="18"
         height="10"
         x="0"
         y="38" />
    </clipPath>
    <linearGradient
       inkscape:collect="always"
       xlink:href="#linearGradient6029"
       id="linearGradient6031"
       x1="9"
       y1="19"
       x2="9"
       y2="33"
       gradientUnits="userSpaceOnUse" />
    <linearGradient
       inkscape:collect="always"
       xlink:href="#linearGradient12779"
       id="linearGradient12781"
       x1="9"
       y1="63"
       x2="9"
       y2="54"
       gradientUnits="userSpaceOnUse" />
    <linearGradient
       inkscape:collect="always"
       xlink:href="#linearGradient13111"
       id="linearGradient13113"
       x1="22"
       y1="64"
       x2="22"
       y2="18"
       gradientUnits="userSpaceOnUse"
       gradientTransform="translate(6)" />
    <linearGradient
       inkscape:collect="always"
       xlink:href="#linearGradient13810"
       id="linearGradient13812"
       x1="8"
       y1="48"
       x2="8"
       y2="44"
       gradientUnits="userSpaceOnUse" />
    <linearGradient
       inkscape:collect="always"
       xlink:href="#linearGradient21376"
       id="linearGradient21378"
       x1="22"
       y1="52"
       x2="22"
       y2="24"
       gradientUnits="userSpaceOnUse"
       gradientTransform="translate(6)" />
    <linearGradient
       inkscape:collect="always"
       xlink:href="#linearGradient24916"
       id="linearGradient24918"
       x1="22"
       y1="59"
       x2="22"
       y2="20"
       gradientUnits="userSpaceOnUse"
       gradientTransform="translate(6)" />
    <linearGradient
       inkscape:collect="always"
       xlink:href="#linearGradient25782"
       id="linearGradient25784"
       x1="28"
       y1="63"
       x2="28"
       y2="48"
       gradientUnits="userSpaceOnUse"
       gradientTransform="translate(-8)" />
    <linearGradient
       inkscape:collect="always"
       xlink:href="#linearGradient25792"
       id="linearGradient25794"
       x1="28"
       y1="40"
       x2="28"
       y2="64"
       gradientUnits="userSpaceOnUse"
       gradientTransform="translate(-8)" />
    <linearGradient
       inkscape:collect="always"
       xlink:href="#linearGradient26223"
       id="linearGradient26225"
       x1="31"
       y1="1"
       x2="12"
       y2="1"
       gradientUnits="userSpaceOnUse" />
    <linearGradient
       inkscape:collect="always"
       xlink:href="#linearGradient6062"
       id="linearGradient40176"
       gradientUnits="userSpaceOnUse"
       x1="8.4224234"
       y1="18"
       x2="8.4224234"
       y2="11"
       gradientTransform="matrix(0.90448127,0,0,1,-21.617924,13)" />
    <clipPath
       clipPathUnits="userSpaceOnUse"
       id="clipPath43650">
      <rect
         style="opacity:1;fill:#333333;fill-opacity:1;stroke:none;stroke-width:1;stroke-linecap:round;stroke-linejoin:round;stroke-dasharray:none"
         id="rect43652"
         width="15.5"
         height="8.5"
         x="9.5"
         y="-20.5"
         transform="rotate(90)" />
    </clipPath>
  </defs>
  <sodipodi:namedview
     id="namedview2079"
     pagecolor="#505050"
     bordercolor="#eeeeee"
     borderopacity="1"
     inkscape:showpageshadow="0"
     inkscape:pageopacity="0"
     inkscape:pagecheckerboard="0"
     inkscape:deskcolor="#505050"
     showgrid="true"
     inkscape:zoom="45.254834"
     inkscape:cx="22.826291"
     inkscape:cy="27.190465"
     inkscape:window-width="1722"
     inkscape:window-height="1362"
     inkscape:window-x="830"
     inkscape:window-y="0"
     inkscape:window-maximized="0"
     inkscape:current-layer="layer3">
    <inkscape:grid
       type="xygrid"
       id="grid3478"
       empspacing="4"
       spacingx="0.5"
       spacingy="0.5" />
  </sodipodi:namedview>
  <desc
     id="desc1959">missile.blend, (Blender 3.6.2)</desc>
  <g
     inkscape:groupmode="layer"
     id="layer1"
     inkscape:label="UV Layout"
     style="display:inline"
     sodipodi:insensitive="true">
    <polygon
       stroke="#000000"
       stroke-width="1"
       fill="#cccccc"
       fill-opacity="0.25"
       points="31,62.016 31,18.703 25,18.703 25,62.016 "
       id="polygon42510" />
    <polygon
       stroke="#000000"
       stroke-width="1"
       fill="#cccccc"
       fill-opacity="0.25"
       points="1,1 8,8 1,15 "
       id="polygon42512" />
    <polygon
       stroke="#000000"
       stroke-width="1"
       fill="#cccccc"
       fill-opacity="0.25"
       points="25,18.703 25,62.016 31,62.016 31,18.703 "
       id="polygon42514" />
    <polygon
       stroke="#000000"
       stroke-width="1"
       fill="#cccccc"
       fill-opacity="0.25"
       points="31,62.016 31,18.703 25,18.703 25,62.016 "
       id="polygon42516" />
    <polygon
       stroke="#000000"
       stroke-width="1"
       fill="#cccccc"
       fill-opacity="0.25"
       points="31,62.016 31,18.703 25,18.703 25,62.016 "
       id="polygon42518" />
    <polygon
       stroke="#000000"
       stroke-width="1"
       fill="#cccccc"
       fill-opacity="0.25"
       points="26,16 31,16 31,10 26,10 "
       id="polygon42520" />
    <polygon
       stroke="#000000"
       stroke-width="1"
       fill="#cccccc"
       fill-opacity="0.25"
       points="2,17 23,17 13,7 "
       id="polygon42522" />
    <polygon
       stroke="#000000"
       stroke-width="1"
       fill="#cccccc"
       fill-opacity="0.25"
       points="26,16 31,16 31,10 26,10 "
       id="polygon42524" />
    <polygon
       stroke="#000000"
       stroke-width="1"
       fill="#cccccc"
       fill-opacity="0.25"
       points="26,16 31,16 31,10 26,10 "
       id="polygon42526" />
    <polygon
       stroke="#000000"
       stroke-width="1"
       fill="#cccccc"
       fill-opacity="0.25"
       points="26,16 31,16 31,10 26,10 "
       id="polygon42528" />
    <polygon
       stroke="#000000"
       stroke-width="1"
       fill="#cccccc"
       fill-opacity="0.25"
       points="23,54.141 23,39.375 20,39.375 20,54.141 "
       id="polygon42530" />
    <polygon
       stroke="#000000"
       stroke-width="1"
       fill="#cccccc"
       fill-opacity="0.25"
       points="12,0.984 25,7.875 31,0.984 "
       id="polygon42532" />
    <polygon
       stroke="#000000"
       stroke-width="1"
       fill="#cccccc"
       fill-opacity="0.25"
       points="31,0.984 25,7.875 12,0.984 "
       id="polygon42534" />
    <polygon
       stroke="#000000"
       stroke-width="1"
       fill="#cccccc"
       fill-opacity="0.25"
       points="20,54.141 20,62.016 23,62.016 23,54.141 "
       id="polygon42536" />
    <polygon
       stroke="#000000"
       stroke-width="1"
       fill="#cccccc"
       fill-opacity="0.25"
       points="12,0.984 25,7.875 31,0.984 "
       id="polygon42538" />
    <polygon
       stroke="#000000"
       stroke-width="1"
       fill="#cccccc"
       fill-opacity="0.25"
       points="31,0.984 25,7.875 12,0.984 "
       id="polygon42540" />
    <polygon
       stroke="#000000"
       stroke-width="1"
       fill="#cccccc"
       fill-opacity="0.25"
       points="23,54.141 23,39.375 20,39.375 20,54.141 "
       id="polygon42542" />
    <polygon
       stroke="#000000"
       stroke-width="1"
       fill="#cccccc"
       fill-opacity="0.25"
       points="23,54.141 23,39.375 20,39.375 20,54.141 "
       id="polygon42544" />
    <polygon
       stroke="#000000"
       stroke-width="1"
       fill="#cccccc"
       fill-opacity="0.25"
       points="20,54.141 20,62.016 23,62.016 23,54.141 "
       id="polygon42546" />
    <polygon
       stroke="#000000"
       stroke-width="1"
       fill="#cccccc"
       fill-opacity="0.25"
       points="12,0.984 25,7.875 31,0.984 "
       id="polygon42548" />
    <polygon
       stroke="#000000"
       stroke-width="1"
       fill="#cccccc"
       fill-opacity="0.25"
       points="31,0.984 25,7.875 12,0.984 "
       id="polygon42550" />
    <polygon
       stroke="#000000"
       stroke-width="1"
       fill="#cccccc"
       fill-opacity="0.25"
       points="20,54.141 20,62.016 23,62.016 23,54.141 "
       id="polygon42552" />
    <polygon
       stroke="#000000"
       stroke-width="1"
       fill="#cccccc"
       fill-opacity="0.25"
       points="12,0.984 25,7.875 31,0.984 "
       id="polygon42554" />
    <polygon
       stroke="#000000"
       stroke-width="1"
       fill="#cccccc"
       fill-opacity="0.25"
       points="31,0.984 25,7.875 12,0.984 "
       id="polygon42556" />
    <polygon
       stroke="#000000"
       stroke-width="1"
       fill="#cccccc"
       fill-opacity="0.25"
       points="23,54.141 23,39.375 20,39.375 20,54.141 "
       id="polygon42558" />
    <polygon
       stroke="#000000"
       stroke-width="1"
       fill="#cccccc"
       fill-opacity="0.25"
       points="20,54.141 20,62.016 23,62.016 23,54.141 "
       id="polygon42560" />
    <polygon
       stroke="#000000"
       stroke-width="1"
       fill="#cccccc"
       fill-opacity="0.25"
       points="9,53.156 17,53.156 17,31.5 9,31.5 "
       id="polygon42562" />
    <polygon
       stroke="#000000"
       stroke-width="1"
       fill="#cccccc"
       fill-opacity="0.25"
       points="1,53.156 9,53.156 9,31.5 1,31.5 "
       id="polygon42564" />
    <polygon
       stroke="#000000"
       stroke-width="1"
       fill="#cccccc"
       fill-opacity="0.25"
       points="9,53.156 17,53.156 17,31.5 9,31.5 "
       id="polygon42566" />
    <polygon
       stroke="#000000"
       stroke-width="1"
       fill="#cccccc"
       fill-opacity="0.25"
       points="1,53.156 9,53.156 9,31.5 1,31.5 "
       id="polygon42568" />
    <polygon
       stroke="#000000"
       stroke-width="1"
       fill="#cccccc"
       fill-opacity="0.25"
       points="9,53.156 17,53.156 17,31.5 9,31.5 "
       id="polygon42570" />
    <polygon
       stroke="#000000"
       stroke-width="1"
       fill="#cccccc"
       fill-opacity="0.25"
       points="1,53.156 9,53.156 9,31.5 1,31.5 "
       id="polygon42572" />
    <polygon
       stroke="#000000"
       stroke-width="1"
       fill="#cccccc"
       fill-opacity="0.25"
       points="9,53.156 17,53.156 17,31.5 9,31.5 "
       id="polygon42574" />
    <polygon
       stroke="#000000"
       stroke-width="1"
       fill="#cccccc"
       fill-opacity="0.25"
       points="1,53.156 9,53.156 9,31.5 1,31.5 "
       id="polygon42576" />
    <polygon
       stroke="#000000"
       stroke-width="1"
       fill="#cccccc"
       fill-opacity="0.25"
       points="9,54.141 1,54.141 2,62.016 "
       id="polygon42578" />
    <polygon
       stroke="#000000"
       stroke-width="1"
       fill="#cccccc"
       fill-opacity="0.25"
       points="9,54.141 6,62.016 12,62.016 "
       id="polygon42580" />
    <polygon
       stroke="#000000"
       stroke-width="1"
       fill="#cccccc"
       fill-opacity="0.25"
       points="16,62.016 17,54.141 9,54.141 "
       id="polygon42582" />
    <polygon
       stroke="#000000"
       stroke-width="1"
       fill="#cccccc"
       fill-opacity="0.25"
       points="1,54.141 2,62.016 9,54.141 "
       id="polygon42584" />
    <polygon
       stroke="#000000"
       stroke-width="1"
       fill="#cccccc"
       fill-opacity="0.25"
       points="12,62.016 9,54.141 6,62.016 "
       id="polygon42586" />
    <polygon
       stroke="#000000"
       stroke-width="1"
       fill="#cccccc"
       fill-opacity="0.25"
       points="9,54.141 16,62.016 17,54.141 "
       id="polygon42588" />
    <polygon
       stroke="#000000"
       stroke-width="1"
       fill="#cccccc"
       fill-opacity="0.25"
       points="9,54.141 1,54.141 2,62.016 "
       id="polygon42590" />
    <polygon
       stroke="#000000"
       stroke-width="1"
       fill="#cccccc"
       fill-opacity="0.25"
       points="12,62.016 9,54.141 6,62.016 "
       id="polygon42592" />
    <polygon
       stroke="#000000"
       stroke-width="1"
       fill="#cccccc"
       fill-opacity="0.25"
       points="9,54.141 16,62.016 17,54.141 "
       id="polygon42594" />
    <polygon
       stroke="#000000"
       stroke-width="1"
       fill="#cccccc"
       fill-opacity="0.25"
       points="9,54.141 1,54.141 2,62.016 "
       id="polygon42596" />
    <polygon
       stroke="#000000"
       stroke-width="1"
       fill="#cccccc"
       fill-opacity="0.25"
       points="12,62.016 9,54.141 6,62.016 "
       id="polygon42598" />
    <polygon
       stroke="#000000"
       stroke-width="1"
       fill="#cccccc"
       fill-opacity="0.25"
       points="9,54.141 16,62.016 17,54.141 "
       id="polygon42600" />
    <polygon
       stroke="#000000"
       stroke-width="1"
       fill="#cccccc"
       fill-opacity="0.25"
       points="9,30.516 17,30.516 14,18.703 "
       id="polygon42602" />
    <polygon
       stroke="#000000"
       stroke-width="1"
       fill="#cccccc"
       fill-opacity="0.25"
       points="9,30.516 12,18.703 6,18.703 "
       id="polygon42604" />
    <polygon
       stroke="#000000"
       stroke-width="1"
       fill="#cccccc"
       fill-opacity="0.25"
       points="4,18.703 1,30.516 9,30.516 "
       id="polygon42606" />
    <polygon
       stroke="#000000"
       stroke-width="1"
       fill="#cccccc"
       fill-opacity="0.25"
       points="14,18.703 9,30.516 17,30.516 "
       id="polygon42608" />
    <polygon
       stroke="#000000"
       stroke-width="1"
       fill="#cccccc"
       fill-opacity="0.25"
       points="6,18.703 9,30.516 12,18.703 "
       id="polygon42610" />
    <polygon
       stroke="#000000"
       stroke-width="1"
       fill="#cccccc"
       fill-opacity="0.25"
       points="1,30.516 9,30.516 4,18.703 "
       id="polygon42612" />
    <polygon
       stroke="#000000"
       stroke-width="1"
       fill="#cccccc"
       fill-opacity="0.25"
       points="14,18.703 9,30.516 17,30.516 "
       id="polygon42614" />
    <polygon
       stroke="#000000"
       stroke-width="1"
       fill="#cccccc"
       fill-opacity="0.25"
       points="6,18.703 9,30.516 12,18.703 "
       id="polygon42616" />
    <polygon
       stroke="#000000"
       stroke-width="1"
       fill="#cccccc"
       fill-opacity="0.25"
       points="9,30.516 4,18.703 1,30.516 "
       id="polygon42618" />
    <polygon
       stroke="#000000"
       stroke-width="1"
       fill="#cccccc"
       fill-opacity="0.25"
       points="9,30.516 17,30.516 14,18.703 "
       id="polygon42620" />
    <polygon
       stroke="#000000"
       stroke-width="1"
       fill="#cccccc"
       fill-opacity="0.25"
       points="6,18.703 9,30.516 12,18.703 "
       id="polygon42622" />
    <polygon
       stroke="#000000"
       stroke-width="1"
       fill="#cccccc"
       fill-opacity="0.25"
       points="9,30.516 4,18.703 1,30.516 "
       id="polygon42624" />
    <polygon
       stroke="#000000"
       stroke-width="1"
       fill="#cccccc"
       fill-opacity="0.25"
       points="2,17 13,7 23,17 "
       id="polygon42626" />
    <polygon
       stroke="#000000"
       stroke-width="1"
       fill="#cccccc"
       fill-opacity="0.25"
       points="1,15 8,8 1,1 "
       id="polygon42628" />
  </g>
  <g
     inkscape:groupmode="layer"
     id="layer2"
     inkscape:label="color"
     style="display:inline">
    <rect
       style="fill:#999999;stroke-linecap:round"
       id="rect5522"
       width="32"
       height="64"
       x="0"
       y="0" />
    <path
       id="rect6583"
       style="opacity:1;fill:#4a4b50;stroke-linecap:round"
       d="m 1,19 h 4 l 8,-7 v 7 h 10 l 1,-1 h 8 V 64 H 0 V 19 Z"
       sodipodi:nodetypes="ccccccccccc" />
    <path
       id="rect9929"
       style="opacity:1;fill:#d40000;stroke-linecap:round"
       d="m 1,18 h 17 v 1 h 5 l 1,-1 h 8 V 0 H 2.5 L 10,8 Z m 17,1 v 45 h 5 V 19 Z"
       sodipodi:nodetypes="ccccccccccccccc" />
    <rect
       style="opacity:1;fill:#333333;fill-opacity:1;stroke:none;stroke-linecap:round"
       id="rect13933"
       width="18"
       height="46"
       x="0"
       y="18" />
    <path
       id="rect9922"
       style="opacity:0.5;fill:#ffffff;stroke-linecap:round"
       d="M 0,0 H 2.5 L 10,8 1,18 H 0 Z"
       sodipodi:nodetypes="cccccc" />
  </g>
  <g
     inkscape:groupmode="layer"
     id="layer3"
     inkscape:label="detail"
     style="display:inline;fill:#ffcc00">
    <rect
       style="fill:#ffcc00;stroke-linecap:round"
       id="rect5629"
       width="18"
       height="10"
       x="0"
       y="38" />
    <path
       id="rect5631"
       style="fill:#000000;stroke-linecap:round"
       d="m -8,38 -9,10 h 3 l 9,-10 z m 9,0 -9,10 h 4 L 5,38 Z m 8,0 -9,10 h 4 l 9,-10 z m 8,0 -9,10 h 4 l 9,-10 z m 8,0 -9,10 h 3 l 9,-10 z"
       clip-path="url(#clipPath5851)"
       sodipodi:nodetypes="ccccccccccccccccccccccccc" />
    <rect
       style="opacity:0.12;fill:#ffffff;stroke-linecap:round"
       id="rect5855"
       width="18"
       height="1"
       x="0"
       y="37" />
    <rect
       style="opacity:0.25;fill:#000000;stroke-linecap:round"
       id="rect5961"
       width="18"
       height="1"
       x="0"
       y="48" />
    <rect
       style="opacity:0.5;fill:url(#linearGradient6031);fill-opacity:1;stroke-linecap:round"
       id="rect5963"
       width="18"
       height="13"
       x="0"
       y="18" />
    <rect
       style="opacity:0;fill:#000000;fill-opacity:1;stroke:none;stroke-linecap:round"
       id="rect7261"
       width="18"
       height="1"
       x="0"
       y="48" />
    <rect
       style="opacity:0.03;fill:#ffffff;stroke-linecap:round"
       id="rect8179"
       width="18"
       height="1"
       x="0"
       y="31" />
    <rect
       style="opacity:0.25;fill:#000000;fill-opacity:1;stroke:none;stroke-linecap:round"
       id="rect10085"
       width="18"
       height="2"
       x="0"
       y="18" />
    <rect
       style="opacity:0.12;fill:#ffffff;stroke-linecap:round"
       id="rect11839"
       width="18"
       height="2"
       x="0"
       y="62" />
    <rect
       style="opacity:0.12;fill:#ffffff;stroke-linecap:round"
       id="rect11841"
       width="18"
       height="1"
       x="0"
       y="54" />
    <rect
       style="opacity:0.25;fill:url(#linearGradient12781);fill-opacity:1;stroke:none;stroke-linecap:round"
       id="rect12773"
       width="18"
       height="9"
       x="0"
       y="55" />
    <path
       id="rect13104"
       style="opacity:0.25;fill:url(#linearGradient13113);fill-opacity:1;stroke-linecap:round"
       d="m 23,19 1,-1 h 8 v 46 h -9 z"
       sodipodi:nodetypes="cccccc" />
    <rect
       style="opacity:0.5;fill:#ffffff;fill-opacity:1;stroke:none;stroke-linecap:round"
       id="rect13115"
       width="9"
       height="1"
       x="23"
       y="63" />
    <path
       id="rect13117"
       style="opacity:0.25;fill:#000000;stroke-linecap:round"
       d="m 23,19 1,-1 h 8 v 2 h -9 z"
       sodipodi:nodetypes="cccccc" />
    <rect
       style="opacity:0.5;fill:url(#linearGradient13812);fill-opacity:1;stroke:none;stroke-linecap:round"
       id="rect13804"
       width="18"
       height="4"
       x="0"
       y="44" />
    <path
       id="rect24909"
       style="opacity:0.5;fill:url(#linearGradient24918);fill-opacity:1;stroke-linecap:round"
       d="m 24,20 h 8 l -3,39 h -2 z"
       sodipodi:nodetypes="ccccc" />
    <path
       id="rect17371"
       style="opacity:0.75;fill:url(#linearGradient21378);fill-opacity:1;stroke-linecap:round"
       d="m 28,24 c 0.554,0 1,12.014 1,17 V 59 H 27 V 41 c 0,-4.986 0.446,-17 1,-17 z"
       sodipodi:nodetypes="ssccss" />
    <rect
       style="opacity:0.5;fill:url(#linearGradient25784);fill-opacity:1;stroke:none;stroke-linecap:round"
       id="rect25776"
       width="5"
       height="9"
       x="18"
       y="55" />
    <rect
       style="opacity:0.5;fill:url(#linearGradient25794);fill-opacity:1;stroke:none;stroke-linecap:round"
       id="rect25786"
       width="5"
       height="16"
       x="18"
       y="39" />
    <path
       id="rect26216"
       style="opacity:0.25;fill:url(#linearGradient26225);fill-opacity:1;stroke-linecap:round"
       d="M 9,0 H 32 V 9 H 24 L 22,8 V 8 L 20,7 h -4 z"
       sodipodi:nodetypes="ccccccccc" />
    <rect
       style="opacity:0.5;fill:url(#linearGradient40176);fill-opacity:1;stroke-width:0.951042;stroke-linecap:round"
       id="rect40174"
       width="8.999999"
       height="7"
       x="-18"
       y="25"
       transform="rotate(-90)" />
    <g
       id="g40180"
       transform="translate(-18.023437,-5.0015621)">
      <circle
         style="opacity:1;fill:#000000;fill-opacity:1;stroke:#ffffff;stroke-width:1.5;stroke-linecap:round;stroke-dasharray:none"
         id="circle6335"
         cx="19.023438"
         cy="-13.001562"
         r="2.4000001"
         transform="scale(1,-1)" />
      <circle
         style="fill:#000000;stroke:none;stroke-width:1.2;stroke-linecap:round"
         id="circle9925"
         cx="19.023438"
         cy="-13.001562"
         r="2.4000001"
         transform="scale(1,-1)" />
    </g>
    <g
       id="g41129"
       transform="rotate(-90,-13.5,21.5)">
      <circle
         style="opacity:1;fill:#000000;fill-opacity:1;stroke:none;stroke-width:0.755906;stroke-linecap:round;stroke-dasharray:none"
         id="path40189"
         cx="3.5"
         cy="9.5"
         r="4.5" />
      <circle
         style="opacity:1;fill:#ffcc00;fill-opacity:1;stroke:none;stroke-width:0.755906;stroke-linecap:round;stroke-dasharray:none"
         id="path40191"
         cx="3.5"
         cy="9.5"
         r="3.5" />
      <ellipse
         style="opacity:1;fill:#000000;fill-opacity:1;stroke:none;stroke-width:0.755906;stroke-linecap:round;stroke-dasharray:none"
         id="path40203"
         cx="2.5"
         cy="8.5"
         rx="0.5"
         ry="1.5" />
      <ellipse
         style="opacity:1;fill:#000000;fill-opacity:1;stroke:none;stroke-width:0.755906;stroke-linecap:round;stroke-dasharray:none"
         id="path40205"
         cx="4.5"
         cy="8.5"
         rx="0.5"
         ry="1.5" />
      <path
         style="opacity:1;fill:none;fill-opacity:1;stroke:#000000;stroke-width:0.755906;stroke-linecap:round;stroke-dasharray:none"
         d="m 1,10 c 1,2 4,2 5,0"
         id="path40270"
         sodipodi:nodetypes="cc" />
    </g>
    <ellipse
       style="opacity:1;fill:#ffcc00;fill-opacity:1;stroke:none;stroke-width:0.755906;stroke-linecap:round;stroke-dasharray:none"
       id="path43621"
       cx="11.5"
       cy="15.5"
       rx="0.5"
       ry="1.5" />
    <g
       id="g43646"
       transform="rotate(-90,13,17)"
       clip-path="url(#clipPath43650)">
      <circle
         style="opacity:1;fill:#000000;fill-opacity:1;stroke:none;stroke-width:0.755906;stroke-linecap:round;stroke-dasharray:none"
         id="path43561"
         cx="13"
         cy="17"
         r="6" />
      <circle
         style="opacity:1;fill:#ffcc00;fill-opacity:1;stroke:none;stroke-width:0.755906;stroke-linecap:round;stroke-dasharray:none"
         id="path43619"
         cx="13"
         cy="17"
         r="5" />
      <ellipse
         style="opacity:1;fill:#000000;fill-opacity:1;stroke:none;stroke-width:0.755906;stroke-linecap:round;stroke-dasharray:none"
         id="path43631"
         cx="14.5"
         cy="16"
         rx="0.5"
         ry="2" />
      <ellipse
         style="opacity:1;fill:#000000;fill-opacity:1;stroke:none;stroke-width:0.755906;stroke-linecap:round;stroke-dasharray:none"
         id="path43633"
         cx="11.5"
         cy="16"
         rx="0.5"
         ry="2" />
      <path
         id="path43635"
         style="opacity:1;fill:none;fill-opacity:1;stroke:#000000;stroke-width:1;stroke-linecap:round;stroke-linejoin:round;stroke-dasharray:none"
         d="M 9.6484375,18 C 10.090408,19.482415 11.453103,20.498878 13,20.5 14.546897,20.4989 15.909592,19.482415 16.351562,18"
         sodipodi:nodetypes="ccc" />
    </g>
  </g>
</svg>
