<?xml version="1.0" encoding="UTF-8" standalone="no"?>
<svg
   height="16"
   viewBox="0 0 16 16"
   width="16"
   version="1.1"
   id="svg4"
   sodipodi:docname="level_3D.svg"
   inkscape:version="1.2.2 (b0a8486541, 2022-12-01)"
   xmlns:inkscape="http://www.inkscape.org/namespaces/inkscape"
   xmlns:sodipodi="http://sodipodi.sourceforge.net/DTD/sodipodi-0.dtd"
   xmlns="http://www.w3.org/2000/svg"
   xmlns:svg="http://www.w3.org/2000/svg">
  <defs
     id="defs8" />
  <sodipodi:namedview
     id="namedview6"
     pagecolor="#505050"
     bordercolor="#eeeeee"
     borderopacity="1"
     inkscape:showpageshadow="0"
     inkscape:pageopacity="0"
     inkscape:pagecheckerboard="0"
     inkscape:deskcolor="#505050"
     showgrid="false"
     inkscape:zoom="1.4142136"
     inkscape:cx="-48.790368"
     inkscape:cy="92.277435"
     inkscape:window-width="1725"
     inkscape:window-height="1362"
     inkscape:window-x="827"
     inkscape:window-y="0"
     inkscape:window-maximized="0"
     inkscape:current-layer="svg4">
    <inkscape:grid
       type="xygrid"
       id="grid687"
       empspacing="4"
       spacingx="0.25"
       spacingy="0.25" />
  </sodipodi:namedview>
  <path
     d="m -14,-3 a 1,1 0 0 0 -1,1 v 3 a 1,1 0 0 0 1,1 h 1 v 0.99 a 1,1 0 0 0 -0.316,0.062 l -2.051,0.684 -0.684,-2.051 a 1.0000706,1.0000706 0 0 0 -1.898,0.631 l 1,3 a 1,1 0 0 0 1.265,0.633 L -14,5.389 v 0.61 c 0,0.041 0.019,0.076 0.024,0.116 l -4.579,3.052 a 1.0001245,1.0001245 0 1 0 1.11,1.664 l 5.056,-3.37 1.495,2.986 a 1,1 0 0 0 1.21,0.502 l 3,-1 A 1,1 0 1 0 -7.316,8.052 L -9.494,8.777 -10.469,6.826 A 0.981,0.981 0 0 0 -10,5.999 V 5 h 1.383 l 0.722,1.448 a 1.0006404,1.0006404 0 1 0 1.79,-0.895 l -1,-2 A 1,1 0 0 0 -8,3 h -3 V 2 h 1 a 1,1 0 0 0 1,-1 v -3 a 1,1 0 0 0 -1,-1 z m 0,2 h 1 v 2 h -1 z"
     fill="#fc7f7f"
     id="path2" />
  <path
     id="rect1639"
     style="fill:#fc7f7f;stroke-linecap:round"
     d="M 8 1 L 2 4 L 2 12 L 8 15 L 14 12 L 14 5.25 C 14.687393 5.25 15.25 4.6873934 15.25 4 C 15.25 3.3126066 14.687393 2.75 14 2.75 C 13.513096 2.75 13.088896 3.0324461 12.882812 3.4414062 L 8 1 z M 8 2 L 12.820312 4.4101562 C 12.83816 4.4610317 12.858786 4.5109154 12.882812 4.5585938 L 9.1171875 6.4414062 C 8.9111039 6.0324461 8.4869037 5.75 8 5.75 C 7.3126066 5.75 6.75 6.3126066 6.75 7 C 6.75 7.6873934 7.3126066 8.25 8 8.25 L 8 14 L 3 11.5 L 3 4.953125 L 3 4.5 L 3.5 4.25 L 8 2 z M 13.960938 3.25 C 13.973802 3.2493575 13.986963 3.25 14 3.25 C 14.417174 3.25 14.75 3.5828261 14.75 4 C 14.75 4.4171739 14.417174 4.75 14 4.75 C 13.582826 4.75 13.25 4.4171739 13.25 4 C 13.25 3.5958628 13.562143 3.2699165 13.960938 3.25 z M 7.9609375 6.25 C 7.9738019 6.2493575 7.9869633 6.25 8 6.25 C 8.4171739 6.25 8.75 6.5828261 8.75 7 C 8.75 7.4171739 8.4171739 7.75 8 7.75 C 7.5828261 7.75 7.25 7.4171739 7.25 7 C 7.25 6.5958628 7.5621424 6.2699165 7.9609375 6.25 z " />
  <path
     id="path5043"
     style="fill:#4d4d4d;stroke-linecap:round"
     d="m 12,9.5 a 1,1 0 0 1 -1,1 1,1 0 0 1 -1,-1 1,1 0 0 1 1,-1 1,1 0 0 1 1,1 z" />
</svg>
