<?xml version="1.0" encoding="UTF-8" standalone="no"?>
<svg
   height="16"
   viewBox="0 0 16 16"
   width="16"
   version="1.1"
   id="svg4"
   sodipodi:docname="level_3D.svg"
   inkscape:version="1.2.2 (b0a8486541, 2022-12-01)"
   xmlns:inkscape="http://www.inkscape.org/namespaces/inkscape"
   xmlns:sodipodi="http://sodipodi.sourceforge.net/DTD/sodipodi-0.dtd"
   xmlns="http://www.w3.org/2000/svg"
   xmlns:svg="http://www.w3.org/2000/svg">
  <defs
     id="defs8" />
  <sodipodi:namedview
     id="namedview6"
     pagecolor="#505050"
     bordercolor="#eeeeee"
     borderopacity="1"
     inkscape:showpageshadow="0"
     inkscape:pageopacity="0"
     inkscape:pagecheckerboard="0"
     inkscape:deskcolor="#505050"
     showgrid="true"
     inkscape:zoom="23.6875"
     inkscape:cx="3.5672823"
     inkscape:cy="11.841689"
     inkscape:window-width="2560"
     inkscape:window-height="1366"
     inkscape:window-x="0"
     inkscape:window-y="0"
     inkscape:window-maximized="1"
     inkscape:current-layer="svg4">
    <inkscape:grid
       type="xygrid"
       id="grid687"
       empspacing="4" />
  </sodipodi:namedview>
  <path
     d="m -14,-3 a 1,1 0 0 0 -1,1 v 3 a 1,1 0 0 0 1,1 h 1 v 0.99 a 1,1 0 0 0 -0.316,0.062 l -2.051,0.684 -0.684,-2.051 a 1.0000706,1.0000706 0 0 0 -1.898,0.631 l 1,3 a 1,1 0 0 0 1.265,0.633 L -14,5.389 v 0.61 c 0,0.041 0.019,0.076 0.024,0.116 l -4.579,3.052 a 1.0001245,1.0001245 0 1 0 1.11,1.664 l 5.056,-3.37 1.495,2.986 a 1,1 0 0 0 1.21,0.502 l 3,-1 A 1,1 0 1 0 -7.316,8.052 L -9.494,8.777 -10.469,6.826 A 0.981,0.981 0 0 0 -10,5.999 V 5 h 1.383 l 0.722,1.448 a 1.0006404,1.0006404 0 1 0 1.79,-0.895 l -1,-2 A 1,1 0 0 0 -8,3 h -3 V 2 h 1 a 1,1 0 0 0 1,-1 v -3 a 1,1 0 0 0 -1,-1 z m 0,2 h 1 v 2 h -1 z"
     fill="#fc7f7f"
     id="path2" />
  <path
     id="rect1639"
     style="fill:#fc7f7f;stroke-linecap:round"
     d="M 8,1 2,4 v 8 l 6,3 6,-3 V 4 Z M 4,5 8,7 12,5 v 6 L 8,13 4,11 Z"
     sodipodi:nodetypes="cccccccccccccc" />
</svg>
