<?xml version="1.0" encoding="UTF-8" standalone="no"?>
<svg
   height="16"
   viewBox="0 0 16 16"
   width="16"
   version="1.1"
   id="svg4"
   sodipodi:docname="spawn_point.svg"
   inkscape:version="1.2.2 (b0a8486541, 2022-12-01)"
   inkscape:export-filename="player_spawn.png"
   inkscape:export-xdpi="768"
   inkscape:export-ydpi="768"
   xmlns:inkscape="http://www.inkscape.org/namespaces/inkscape"
   xmlns:sodipodi="http://sodipodi.sourceforge.net/DTD/sodipodi-0.dtd"
   xmlns="http://www.w3.org/2000/svg"
   xmlns:svg="http://www.w3.org/2000/svg">
  <defs
     id="defs8" />
  <sodipodi:namedview
     id="namedview6"
     pagecolor="#505050"
     bordercolor="#eeeeee"
     borderopacity="1"
     inkscape:showpageshadow="0"
     inkscape:pageopacity="0"
     inkscape:pagecheckerboard="0"
     inkscape:deskcolor="#505050"
     showgrid="true"
     inkscape:zoom="32"
     inkscape:cx="6.703125"
     inkscape:cy="11.265625"
     inkscape:window-width="1723"
     inkscape:window-height="1362"
     inkscape:window-x="829"
     inkscape:window-y="0"
     inkscape:window-maximized="0"
     inkscape:current-layer="svg4">
    <inkscape:grid
       type="xygrid"
       id="grid687"
       empspacing="4"
       spacingx="0.25"
       spacingy="0.25" />
  </sodipodi:namedview>
  <path
     d="m -14,-3 a 1,1 0 0 0 -1,1 v 3 a 1,1 0 0 0 1,1 h 1 v 0.99 a 1,1 0 0 0 -0.316,0.062 l -2.051,0.684 -0.684,-2.051 a 1.0000706,1.0000706 0 0 0 -1.898,0.631 l 1,3 a 1,1 0 0 0 1.265,0.633 L -14,5.389 v 0.61 c 0,0.041 0.019,0.076 0.024,0.116 l -4.579,3.052 a 1.0001245,1.0001245 0 1 0 1.11,1.664 l 5.056,-3.37 1.495,2.986 a 1,1 0 0 0 1.21,0.502 l 3,-1 A 1,1 0 1 0 -7.316,8.052 L -9.494,8.777 -10.469,6.826 A 0.981,0.981 0 0 0 -10,5.999 V 5 h 1.383 l 0.722,1.448 a 1.0006404,1.0006404 0 1 0 1.79,-0.895 l -1,-2 A 1,1 0 0 0 -8,3 h -3 V 2 h 1 a 1,1 0 0 0 1,-1 v -3 a 1,1 0 0 0 -1,-1 z m 0,2 h 1 v 2 h -1 z"
     fill="#fc7f7f"
     id="path2" />
  <path
     id="path7053"
     style="fill:#fc7f7f;stroke-width:1.62499;stroke-linecap:round"
     d="M 8,1 C 5.8867351,1 4.0450228,3.3411991 3.0644532,5.8295898 L 4.0214843,6.5473635 5.4946289,5.0742187 6.7729491,7.6308585 8.5639648,5.3920898 9.541504,7.8359375 11.147949,7.029296 11.841796,7.7231448 12.932129,5.815918 C 11.950274,3.3323588 10.109601,1 8,1 Z M 5.2587891,6.5507813 4.1035157,7.7026365 2.7568358,6.6943355 C 2.4704424,7.6184003 2.3125,8.5292532 2.3125,9.3125 2.3125,12.453611 4.8588868,15 8,15 c 3.141113,0 5.6875,-2.546389 5.6875,-5.6875 0,-0.7198394 -0.135436,-1.5461652 -0.379394,-2.392579 L 12.033204,9.1518556 10.977051,8.095704 9.0834961,9.0424806 8.3110352,7.111329 6.6020509,9.2441422 Z" />
  <path
     style="fill:none;stroke:#ffffff;stroke-width:0.5;stroke-linecap:butt;stroke-linejoin:miter;stroke-dasharray:none"
     d="m 17.5,3.125 1.75,1.25 0.75,-0.75 0.75,1.5 1,-1.25 0.5,1.25 1,-0.5 0.5,0.5 1.25,-2"
     id="path51552"
     sodipodi:nodetypes="ccccccccc" />
  <g
     id="path53482">
    <path
       style="color:#000000;fill:#fc7f7f;stroke-width:2;stroke-linecap:round;-inkscape-stroke:none"
       d="M 7,9 2,4"
       id="path53492" />
  </g>
  <g
     id="path53484">
    <path
       style="color:#000000;fill:#fc7f7f;stroke-width:2;stroke-linecap:round;-inkscape-stroke:none"
       d="M 9,9 14,4"
       id="path53498" />
  </g>
  <path
     style="fill:#fc7f7f;fill-opacity:1;stroke:#fc7f7f;stroke-width:1;stroke-linecap:round;stroke-linejoin:miter;stroke-dasharray:none;stroke-opacity:1"
     d="m 1.5,5.5 h -1"
     id="path53651"
     sodipodi:nodetypes="cc" />
  <path
     style="fill:#fc7f7f;fill-opacity:1;stroke:#fc7f7f;stroke-width:1;stroke-linecap:round;stroke-linejoin:miter;stroke-dasharray:none;stroke-opacity:1"
     d="m 1.5,7.5 -1,1"
     id="path53655" />
  <path
     style="fill:#fc7f7f;fill-opacity:1;stroke:#fc7f7f;stroke-width:1;stroke-linecap:round;stroke-linejoin:miter;stroke-dasharray:none;stroke-opacity:1"
     d="m 1.5,3.5 -1,-1"
     id="path53657" />
  <path
     style="fill:#fc7f7f;fill-opacity:1;stroke:#fc7f7f;stroke-width:1;stroke-linecap:round;stroke-linejoin:miter;stroke-dasharray:none;stroke-opacity:1"
     d="m 14.5,3.5 1,-1"
     id="path53659" />
  <path
     style="fill:#fc7f7f;fill-opacity:1;stroke:#fc7f7f;stroke-width:1;stroke-linecap:round;stroke-linejoin:miter;stroke-dasharray:none;stroke-opacity:1"
     d="m 14.5,5.5 h 1"
     id="path53661"
     sodipodi:nodetypes="cc" />
  <path
     style="fill:#fc7f7f;fill-opacity:1;stroke:#fc7f7f;stroke-width:1;stroke-linecap:round;stroke-linejoin:miter;stroke-dasharray:none;stroke-opacity:1"
     d="m 14.5,7.5 1,1"
     id="path54449" />
</svg>
