<?xml version="1.0" encoding="UTF-8" standalone="no"?>
<svg
   height="16"
   viewBox="0 0 16 16"
   width="16"
   version="1.1"
   id="svg4"
   sodipodi:docname="waypoint_3D.svg"
   inkscape:version="1.2.2 (b0a8486541, 2022-12-01)"
   xmlns:inkscape="http://www.inkscape.org/namespaces/inkscape"
   xmlns:sodipodi="http://sodipodi.sourceforge.net/DTD/sodipodi-0.dtd"
   xmlns="http://www.w3.org/2000/svg"
   xmlns:svg="http://www.w3.org/2000/svg">
  <defs
     id="defs8" />
  <sodipodi:namedview
     id="namedview6"
     pagecolor="#505050"
     bordercolor="#eeeeee"
     borderopacity="1"
     inkscape:showpageshadow="0"
     inkscape:pageopacity="0"
     inkscape:pagecheckerboard="0"
     inkscape:deskcolor="#505050"
     showgrid="true"
     inkscape:zoom="22.627417"
     inkscape:cx="12.020815"
     inkscape:cy="11.91033"
     inkscape:window-width="1687"
     inkscape:window-height="1362"
     inkscape:window-x="865"
     inkscape:window-y="0"
     inkscape:window-maximized="0"
     inkscape:current-layer="svg4">
    <inkscape:grid
       type="xygrid"
       id="grid687"
       empspacing="4"
       spacingx="0.25"
       spacingy="0.25" />
  </sodipodi:namedview>
  <path
     d="m -14,-3 a 1,1 0 0 0 -1,1 v 3 a 1,1 0 0 0 1,1 h 1 v 0.99 a 1,1 0 0 0 -0.316,0.062 l -2.051,0.684 -0.684,-2.051 a 1.0000706,1.0000706 0 0 0 -1.898,0.631 l 1,3 a 1,1 0 0 0 1.265,0.633 L -14,5.389 v 0.61 c 0,0.041 0.019,0.076 0.024,0.116 l -4.579,3.052 a 1.0001245,1.0001245 0 1 0 1.11,1.664 l 5.056,-3.37 1.495,2.986 a 1,1 0 0 0 1.21,0.502 l 3,-1 A 1,1 0 1 0 -7.316,8.052 L -9.494,8.777 -10.469,6.826 A 0.981,0.981 0 0 0 -10,5.999 V 5 h 1.383 l 0.722,1.448 a 1.0006404,1.0006404 0 1 0 1.79,-0.895 l -1,-2 A 1,1 0 0 0 -8,3 h -3 V 2 h 1 a 1,1 0 0 0 1,-1 v -3 a 1,1 0 0 0 -1,-1 z m 0,2 h 1 v 2 h -1 z"
     fill="#fc7f7f"
     id="path2" />
  <path
     id="path5043"
     style="fill:#4d4d4d;stroke-linecap:round"
     d="m 12,9.5 a 1,1 0 0 1 -1,1 1,1 0 0 1 -1,-1 1,1 0 0 1 1,-1 1,1 0 0 1 1,1 z" />
  <circle
     style="fill:none;fill-opacity:1;stroke:#fc7f7f;stroke-width:0.5;stroke-linecap:round;stroke-dasharray:none;stroke-opacity:1"
     id="path6962"
     cx="1.5"
     cy="6.25"
     r="0.75" />
  <circle
     style="fill:none;fill-opacity:1;stroke:#fc7f7f;stroke-width:0.5;stroke-linecap:round;stroke-dasharray:none;stroke-opacity:1"
     id="path6964"
     cx="4.25"
     cy="12.25"
     r="1.25" />
  <circle
     style="fill:none;fill-opacity:1;stroke:#fc7f7f;stroke-width:0.5;stroke-linecap:round;stroke-dasharray:none;stroke-opacity:1"
     id="circle6966"
     cx="8"
     cy="5.25"
     r="1.75" />
  <circle
     style="fill:none;fill-opacity:1;stroke:#fc7f7f;stroke-width:0.5;stroke-linecap:round;stroke-dasharray:none;stroke-opacity:1"
     id="circle6968"
     cx="10.75"
     cy="10.75"
     r="0.75" />
  <circle
     style="fill:none;fill-opacity:1;stroke:#fc7f7f;stroke-width:0.5;stroke-linecap:round;stroke-dasharray:none;stroke-opacity:1"
     id="circle6970"
     cx="13.5"
     cy="6"
     r="0.75" />
  <path
     id="path7035"
     style="color:#000000;fill:#fc7f7f;stroke-linecap:round;-inkscape-stroke:none"
     d="M 12.933594 6.4785156 L 10.886719 10.013672 A 0.75 0.75 0 0 1 11.320312 10.263672 L 13.369141 6.7246094 A 0.75 0.75 0 0 1 12.933594 6.4785156 z M 6.96875 6.6464844 L 4.609375 11.052734 A 1.25 1.25 0 0 1 5.0488281 11.289062 L 7.4082031 6.8828125 A 1.75 1.75 0 0 1 6.96875 6.6464844 z M 8.9921875 6.6757812 A 1.75 1.75 0 0 1 8.546875 6.9003906 L 10.210938 10.230469 A 0.75 0.75 0 0 1 10.662109 10.017578 L 8.9921875 6.6757812 z M 2.0214844 6.7890625 A 0.75 0.75 0 0 1 1.5644531 6.9882812 L 3.5117188 11.242188 A 1.25 1.25 0 0 1 3.9707031 11.042969 L 2.0214844 6.7890625 z " />
  <circle
     style="fill:#fc7f7f;fill-opacity:1;stroke:none;stroke-width:0.5;stroke-linecap:round;stroke-dasharray:none;stroke-opacity:1"
     id="path7053"
     cx="8"
     cy="5.25"
     r="1.75" />
</svg>
