<?xml version="1.0" encoding="UTF-8" standalone="no"?>
<svg
   height="16"
   viewBox="0 0 16 16"
   width="16"
   version="1.1"
   id="svg4"
   sodipodi:docname="player_spawn.svg"
   inkscape:version="1.2.2 (b0a8486541, 2022-12-01)"
   xmlns:inkscape="http://www.inkscape.org/namespaces/inkscape"
   xmlns:sodipodi="http://sodipodi.sourceforge.net/DTD/sodipodi-0.dtd"
   xmlns="http://www.w3.org/2000/svg"
   xmlns:svg="http://www.w3.org/2000/svg">
  <defs
     id="defs8" />
  <sodipodi:namedview
     id="namedview6"
     pagecolor="#505050"
     bordercolor="#eeeeee"
     borderopacity="1"
     inkscape:showpageshadow="0"
     inkscape:pageopacity="0"
     inkscape:pagecheckerboard="0"
     inkscape:deskcolor="#505050"
     showgrid="true"
     inkscape:zoom="11.313709"
     inkscape:cx="13.700194"
     inkscape:cy="17.36831"
     inkscape:window-width="1723"
     inkscape:window-height="1362"
     inkscape:window-x="829"
     inkscape:window-y="0"
     inkscape:window-maximized="0"
     inkscape:current-layer="svg4">
    <inkscape:grid
       type="xygrid"
       id="grid687"
       empspacing="4"
       spacingx="0.25"
       spacingy="0.25" />
  </sodipodi:namedview>
  <path
     d="m -14,-3 a 1,1 0 0 0 -1,1 v 3 a 1,1 0 0 0 1,1 h 1 v 0.99 a 1,1 0 0 0 -0.316,0.062 l -2.051,0.684 -0.684,-2.051 a 1.0000706,1.0000706 0 0 0 -1.898,0.631 l 1,3 a 1,1 0 0 0 1.265,0.633 L -14,5.389 v 0.61 c 0,0.041 0.019,0.076 0.024,0.116 l -4.579,3.052 a 1.0001245,1.0001245 0 1 0 1.11,1.664 l 5.056,-3.37 1.495,2.986 a 1,1 0 0 0 1.21,0.502 l 3,-1 A 1,1 0 1 0 -7.316,8.052 L -9.494,8.777 -10.469,6.826 A 0.981,0.981 0 0 0 -10,5.999 V 5 h 1.383 l 0.722,1.448 a 1.0006404,1.0006404 0 1 0 1.79,-0.895 l -1,-2 A 1,1 0 0 0 -8,3 h -3 V 2 h 1 a 1,1 0 0 0 1,-1 v -3 a 1,1 0 0 0 -1,-1 z m 0,2 h 1 v 2 h -1 z"
     fill="#fc7f7f"
     id="path2" />
  <path
     id="path7053"
     style="fill:#fc7f7f;stroke-width:0.928571;stroke-linecap:round"
     d="M 6.4335938,10.171875 5.7734375,10.830078 5.0039062,10.253906 C 4.8402526,10.781943 4.75,11.30243 4.75,11.75 4.75,13.544923 6.2050764,15 8,15 c 1.7949236,0 3.25,-1.455077 3.25,-3.25 0,-0.411337 -0.07739,-0.883523 -0.216797,-1.367188 l -0.728515,1.275391 -0.6035161,-0.603515 -1.0820313,0.541015 -0.4414062,-1.103515 -0.9765625,1.21875 z"
     sodipodi:nodetypes="cccsssccccccc" />
  <path
     id="path51548"
     style="fill:#fc7f7f;stroke-width:0.928571;stroke-linecap:round"
     d="M 8,0.9902344 C 6.7924189,0.9902344 5.7400136,2.3280611 5.1796875,3.75 L 5.7265625,4.1601564 6.5683594,3.3183594 7.2988281,4.7792964 8.3222656,3.5 8.8808594,4.8964844 9.7988281,4.4355464 10.195312,4.8320314 10.818359,3.7421875 C 10.257298,2.3230095 9.2054877,0.9902344 8,0.9902344 Z"
     sodipodi:nodetypes="scccccccccs" />
  <path
     style="fill:none;stroke:#ffffff;stroke-width:0.5;stroke-linecap:butt;stroke-linejoin:miter;stroke-dasharray:none"
     d="m 17.5,3.125 1.75,1.25 0.75,-0.75 0.75,1.5 1,-1.25 0.5,1.25 1,-0.5 0.5,0.5 1.25,-2"
     id="path51552"
     sodipodi:nodetypes="ccccccccc" />
  <path
     id="path51558"
     style="fill:#fc7f7f;fill-opacity:1;stroke:none;stroke-width:0.571429;stroke-linecap:butt;stroke-linejoin:miter;stroke-dasharray:none"
     d="M 8 3 A 2 2 0 0 0 6.7050781 3.4765625 L 7.2988281 4.6640625 L 8.3222656 3.3847656 L 8.8808594 4.78125 L 9.7988281 4.3203125 L 9.9199219 4.4414062 A 2 2 0 0 0 8 3 z M 6.4335938 4.046875 L 6.1035156 4.3769531 A 2 2 0 0 0 6 5 A 2 2 0 0 0 8 7 A 2 2 0 0 0 9.984375 5.2148438 L 9.7011719 4.9296875 L 8.6191406 5.4707031 L 8.1777344 4.3671875 L 7.2011719 5.5859375 L 6.4335938 4.046875 z " />
  <path
     id="rect53409"
     style="fill:#fc7f7f;fill-opacity:1;stroke:none;stroke-width:0.5;stroke-linecap:butt;stroke-linejoin:miter;stroke-dasharray:none"
     d="M 2 3 A 1 1 0 0 0 1.2929688 3.2929688 A 1 1 0 0 0 1.2929688 4.7070312 L 6 9.4140625 L 6 9.9140625 L 6.5683594 9.3457031 L 7.2988281 10.804688 L 8.3222656 9.5273438 L 8.8808594 10.923828 L 9.7988281 10.460938 L 10 10.662109 L 10 9.4140625 L 14.707031 4.7070312 A 1 1 0 0 0 14.707031 3.2929688 A 1 1 0 0 0 14 3 A 1 1 0 0 0 13.292969 3.2929688 L 8.5859375 8 L 7.4140625 8 L 2.7070312 3.2929688 A 1 1 0 0 0 2 3 z M 6.4335938 10.189453 L 6 10.621094 L 6 13 L 10 13 L 10 11.369141 L 9.7011719 11.070312 L 8.6191406 11.613281 L 8.1777344 10.507812 L 7.2011719 11.726562 L 6.4335938 10.189453 z " />
  <g
     id="path53482">
    <path
       style="color:#000000;fill:#fc7f7f;stroke-width:2;stroke-linecap:round;-inkscape-stroke:none"
       d="M 7,9 2,4"
       id="path53492" />
  </g>
  <g
     id="path53484">
    <path
       style="color:#000000;fill:#fc7f7f;stroke-width:2;stroke-linecap:round;-inkscape-stroke:none"
       d="M 9,9 14,4"
       id="path53498" />
  </g>
  <path
     style="fill:#fc7f7f;fill-opacity:1;stroke:#fc7f7f;stroke-width:1;stroke-linecap:round;stroke-linejoin:miter;stroke-dasharray:none;stroke-opacity:1"
     d="m 3.5,8.5 h -2"
     id="path53651" />
  <path
     style="fill:#fc7f7f;fill-opacity:1;stroke:#fc7f7f;stroke-width:1;stroke-linecap:round;stroke-linejoin:miter;stroke-dasharray:none;stroke-opacity:1"
     d="m 3.5,10.5 -1,1"
     id="path53655" />
  <path
     style="fill:#fc7f7f;fill-opacity:1;stroke:#fc7f7f;stroke-width:1;stroke-linecap:round;stroke-linejoin:miter;stroke-dasharray:none;stroke-opacity:1"
     d="m 4.5,2.5 -1,-1"
     id="path53657" />
  <path
     style="fill:#fc7f7f;fill-opacity:1;stroke:#fc7f7f;stroke-width:1;stroke-linecap:round;stroke-linejoin:miter;stroke-dasharray:none;stroke-opacity:1"
     d="m 11.5,2.5 1,-1"
     id="path53659" />
  <path
     style="fill:#fc7f7f;fill-opacity:1;stroke:#fc7f7f;stroke-width:1;stroke-linecap:round;stroke-linejoin:miter;stroke-dasharray:none;stroke-opacity:1"
     d="m 12.5,8.5 h 2"
     id="path53661" />
  <path
     style="fill:#fc7f7f;fill-opacity:1;stroke:#fc7f7f;stroke-width:1;stroke-linecap:round;stroke-linejoin:miter;stroke-dasharray:none;stroke-opacity:1"
     d="m 12.5,10.5 1,1"
     id="path53663" />
</svg>
